# xmcd CD database file
#
# Track frame offsets:
#	150
#	12420
#	24506
#	37662
#	50018
#	65158
#	79238
#	96119
#	109649
#	127952
#	142738
#	154950
#
# Disc length: 2216 seconds
#
# Revision: 1
# Processed by: cddbd v1.5.2PL0 Copyright (c) Steve Scherf et al.
# Submitted via: CDex 1.51
#
DISCID=9508a60c
DTITLE=John Hammond - Southern Fried
DYEAR=2002
DGENRE=Blues
TTITLE0=Shake For Me
TTITLE1=Cryin' For My Baby
TTITLE2=I'm Tore Down
TTITLE3=Don't Go No Further
TTITLE4=I'm Leavin' You
TTITLE5=It's Too Late
TTITLE6=Nadine
TTITLE7=Mystery Train
TTITLE8=My Time After A While
TTITLE9=I Can't Be Satisfied
TTITLE10=You'll Be Mine
TTITLE11=Riding In The Moonlight
EXTD=YEAR: 2002
EXTT0=
EXTT1=
EXTT2=
EXTT3=
EXTT4=
EXTT5=
EXTT6=
EXTT7=
EXTT8=
EXTT9=
EXTT10=
EXTT11=
PLAYORDER=
